<?xml version="1.0" encoding="UTF-8"?>
<svg version="1.1" xmlns="http://www.w3.org/2000/svg" width="1254" height="1254" viewBox="0 0 1254 1254" preserveAspectRatio="xMidYMid meet">
<style>path { fill: #a98bd4; }</style>
<path d="M0 0 C2.96107899 2.09235456 5.49578944 4.38220753 8 7 C8.81791016 7.84304687 8.81791016 7.84304687 9.65234375 8.703125 C18.155303 18.65569816 19.82317366 32.84901548 21.03125 45.41381836 C21.24837462 47.67060588 21.48909434 49.92385036 21.734375 52.17773438 C23.56323621 69.47509855 24.07169103 86.79090871 24.33157349 104.17175293 C24.62871358 123.0960064 25.54067618 141.91773439 26.98388672 160.78881836 C28.62438527 182.47436002 27.52999529 203.72335923 26.28173828 225.41845703 C25.55165203 238.21069396 24.86674062 250.98065051 24.8515625 263.796875 C24.84991089 264.70845367 24.84825928 265.62003235 24.84655762 266.55923462 C24.90087699 275.81471235 25.21069672 285.43426402 29 294 C30.41433206 294.2236337 31.83167618 294.42826476 33.25 294.625 C34.03890625 294.74101562 34.8278125 294.85703125 35.640625 294.9765625 C38.52664661 295.00523159 39.6763184 294.73100168 42 293 C43.38447325 290.79330683 44.51737607 288.71591115 45.625 286.375 C45.96490967 285.67552246 46.30481934 284.97604492 46.6550293 284.25537109 C51.02641221 275.0909348 54.80734515 265.66343729 58.65722656 256.27197266 C79.14044903 206.35994583 79.14044903 206.35994583 92.83984375 200.61328125 C104.49173643 197.30523939 113.96808073 200.0499482 124.375 205.5 C125.23134033 205.93852295 126.08768066 206.3770459 126.9699707 206.82885742 C129.65289719 208.20753236 132.32713849 209.60192531 135 211 C136.3005835 211.67603271 136.3005835 211.67603271 137.62744141 212.36572266 C171.3127517 229.88106382 171.3127517 229.88106382 175.56665039 242.70874023 C176.16057487 245.84901134 176.12996769 248.86655994 176.1328125 252.0625 C176.13485939 253.10602882 176.13485939 253.10602882 176.13694763 254.17063904 C176.13897886 256.44714057 176.13263693 258.72351163 176.125 261 C176.12378143 261.77755646 176.12256287 262.55511292 176.12130737 263.35623169 C176.01938555 318.90362733 176.01938555 318.90362733 171 326 C165.95487747 330.82576938 162.12021446 333.05847687 155.1875 333.3125 C148.37571708 333.15055568 142.49775414 331.29173957 137.36376953 326.61889648 C131.84381963 320.06630289 129.90187078 311.70355639 128.3125 303.5 C128.11333984 302.53191406 127.91417969 301.56382812 127.70898438 300.56640625 C127.31616096 298.64736726 126.93073296 296.7267975 126.55322266 294.8046875 C126.18396198 292.9326369 125.80338678 291.06278313 125.41162109 289.1953125 C125.22809082 288.31617188 125.04456055 287.43703125 124.85546875 286.53125 C124.69071045 285.75330078 124.52595215 284.97535156 124.35620117 284.17382812 C124 282 124 282 124 278 C120.84541387 279.64339524 120.84541387 279.64339524 120.31689453 282.26513672 C119.98511504 285.12846016 119.90690241 287.87526651 119.9296875 290.7578125 C119.8411191 308.74592974 117.75924714 325.90367175 114.61474609 343.60986328 C112.00962392 358.29980081 109.55799596 373.1569608 109.75 388.125 C109.76015137 389.35609497 109.76015137 389.35609497 109.77050781 390.61206055 C110.10213391 410.61181346 114.61208517 428.11184285 123.21557617 446.1315918 C124.0274864 448.06546947 124.5437684 449.95559531 125 452 C124.3702124 452.34256836 123.7404248 452.68513672 123.09155273 453.03808594 C120.20645659 454.60796833 117.3219743 456.17897536 114.4375 457.75 C113.44685547 458.28882813 112.45621094 458.82765625 111.43554688 459.3828125 C109.49273527 460.44135437 107.55312458 461.50579465 105.61694336 462.57641602 C104.0724495 463.41660108 102.51485514 464.23452582 100.93188477 464.99975586 C95.71445262 467.60596114 93.1749348 471.32462475 90.0625 476.0625 C89.02799804 477.58377847 87.99283996 479.10461097 86.95703125 480.625 C86.45768066 481.3675 85.95833008 482.11 85.44384766 482.875 C83.44286119 485.81997568 81.35503822 488.69097361 79.25 491.5625 C78.29867187 492.86380859 78.29867187 492.86380859 77.328125 494.19140625 C76.88984375 494.78824219 76.4515625 495.38507813 76 496 C78.61666927 494.07344131 81.12221758 492.08262947 83.5625 489.9375 C84.25214844 489.33164062 84.94179688 488.72578125 85.65234375 488.1015625 C89.23951533 484.89041723 92.76550886 481.61275935 96.2890625 478.33203125 C102.75967126 472.76581593 109.77416098 469.84043501 117.72070312 467.04125977 C119.07363267 466.55539659 120.41961942 466.04974929 121.7578125 465.5246582 C132.90157338 461.15865287 132.90157338 461.15865287 138.05859375 463.22631836 C140.57893992 464.99998898 142.75716502 466.89342741 145 469 C150.32504285 472.39287086 155.8768265 472.96383287 162 472 C167.49792815 470.38482526 172.72711622 468.23123815 178 466 C178.93263672 465.60893066 179.86527344 465.21786133 180.82617188 464.81494141 C183.86828832 463.53386797 186.90425763 462.23943965 189.9375 460.9375 C190.89615967 460.5264502 191.85481934 460.11540039 192.8425293 459.69189453 C204.87817212 454.60935807 204.87817212 454.60935807 214.625 446.1875 C215.74455078 444.88039063 215.74455078 444.88039063 216.88671875 443.546875 C217.58410156 442.70640625 218.28148437 441.8659375 219 441 C227.16679292 431.26475016 235.96314029 423.38218409 247 417 C247.76570312 416.53722656 248.53140625 416.07445312 249.3203125 415.59765625 C263.15725669 407.88180093 280.8516685 405.46705411 296.0625 409.6875 C302.64121333 412.00133667 306.74871738 414.51888836 310.375 420.625 C312.97817929 426.46842356 313.06701632 432.40022388 311.2578125 438.50390625 C307.85266466 446.24626794 301.78740262 452.00290888 296 458 C283.39051974 471.47278493 273.98928794 486.82434382 265.875 503.3125 C258.53093675 518.16785709 250.46599332 526.8945645 235.21206665 534.07107544 C232.07349905 535.55133314 228.96218819 537.08717346 225.84765625 538.6171875 C225.24175156 538.91361649 224.63584686 539.21004547 224.01158142 539.51545715 C197.8253958 552.37042816 177.57754449 572.18580141 157.33984375 592.75610352 C149.90199371 600.3077068 142.57776508 607.7205971 134 614 C133.29069336 614.52150635 132.58138672 615.0430127 131.85058594 615.58032227 C129.81060418 617.05451666 127.75379429 618.50047393 125.6875 619.9375 C124.96038818 620.44837158 124.23327637 620.95924316 123.48413086 621.4855957 C120.1309445 623.83712841 116.7655814 626.16737924 113.3671875 628.453125 C99.50540269 637.82539558 87.81054335 647.11447295 84 664 C80.73319491 681.41593026 80.51549524 698.83803499 80.625 716.5 C80.63004853 717.85413489 80.63474434 719.20827114 80.63909912 720.56240845 C80.72131323 742.82792167 81.58411766 764.86173276 84 787 C84.20071255 788.88280941 84.40139486 790.76562205 84.60205078 792.6484375 C87.48985573 819.45082125 91.20980847 846.09441438 95.54760742 872.69995117 C95.71842834 873.76397659 95.88924927 874.82800201 96.06524658 875.92427063 C96.38548638 877.91570617 96.71229371 879.90610084 97.04681396 881.89518738 C97.18790588 882.77652847 97.3289978 883.65786957 97.47436523 884.56591797 C97.66372902 885.71204056 97.66372902 885.71204056 97.85691833 886.88131714 C98.01241267 889.18380064 97.74984854 890.82359662 97 893 C95.44140625 894.703125 95.44140625 894.703125 93.5625 896.25 C92.63630859 897.03117188 92.63630859 897.03117188 91.69140625 897.828125 C90 899 90 899 88 899 C87.73574219 899.58007812 87.47148438 900.16015625 87.19921875 900.7578125 C85.95090798 903.09178768 84.52472718 904.86107604 82.8125 906.875 C75.82513667 915.74413758 71.36016159 925.98591256 69 937 C64.77563176 938.17907505 62.01297017 937.69165865 57.8125 936.5625 C41.3647198 932.84626514 24.90984922 934.10440677 10.125 942.6875 C1.167401 948.62988754 -5.40681983 955.23660698 -10 965 C-9.62230469 964.5875 -9.24460937 964.175 -8.85546875 963.75 C3.45929125 950.82959607 18.25241941 942.99517769 36 941 C49.39635673 940.93044467 60.11484554 943.83732732 72 950 C72.66 950 73.32 950 74 950 C74.08636719 948.99582031 74.17273438 947.99164062 74.26171875 946.95703125 C76.13879872 927.71045217 84.03029456 911.57751198 99 899 C115.18046114 886.94397013 132.23154233 883.47213541 152 885 C156.63686342 885.80410819 160.6862684 887.14015433 165 889 C166.13566406 889.46277344 167.27132812 889.92554688 168.44140625 890.40234375 C184.53407181 897.62726166 197.19570876 910.83222428 203.75170898 927.26367188 C207.68184423 938.10379199 207.60712096 948.59961744 207 960 C207.680625 959.7834375 208.36125 959.566875 209.0625 959.34375 C224.378686 954.94441998 239.33403199 955.9521221 253.51171875 963.4140625 C261.01372688 968.19556219 268.19317518 974.85908683 272.125 982.9375 C272.43695312 983.56527344 272.74890625 984.19304688 273.0703125 984.83984375 C277.23863101 994.52505441 277.81015445 1006.75120837 274.0703125 1016.7578125 C270.55895251 1024.11372722 267.17261767 1028.06181686 259.3125 1030.875 C242.94178515 1035.58837866 225.05496826 1036.23592789 208.125 1036.3125 C207.09189697 1036.31805908 206.05879395 1036.32361816 204.99438477 1036.3293457 C193.4916039 1036.21697822 193.4916039 1036.21697822 189.05078125 1032.265625 C188.47714844 1031.60046875 187.90351562 1030.9353125 187.3125 1030.25 C177.93088099 1020.46048451 164.30961751 1015.94573725 150.9375 1015.5 C137.12939269 1015.96439823 126.24689389 1021.32503716 116.63671875 1031 C114.89540727 1032.99316708 114.89540727 1032.99316708 113.64453125 1035.5625 C109.98601516 1042.31064763 109.98601516 1042.31064763 106.06152344 1043.67285156 C102.96899609 1044.35540586 99.90133128 1044.79675511 96.7487793 1045.09082031 C90.08504115 1045.71695295 84.64556163 1047.34969722 79.8203125 1052.18359375 C79.26085937 1052.92738281 78.70140625 1053.67117188 78.125 1054.4375 C69.10422145 1065.03995648 54.19447847 1067.06297087 41 1069 C20.46392282 1070.06563495 2.92410405 1068.36896501 -16.41992188 1061.51342773 C-25.74446244 1058.23386694 -34.60921622 1056.58946644 -44.5 1056.5625 C-45.53390869 1056.55863281 -46.56781738 1056.55476563 -47.63305664 1056.55078125 C-60.42700697 1056.72545511 -73.08818454 1058.49394914 -85.75 1060.22094727 C-99.98234731 1062.12603772 -114.12707243 1062.99668496 -128.4375 1061.1875 C-129.55439209 1061.05275269 -129.55439209 1061.05275269 -130.69384766 1060.9152832 C-142.96085654 1059.33093891 -155.12466394 1055.75856702 -165.1875 1048.375 C-171.73873708 1043.58395221 -177.10671848 1041.99456767 -185.1875 1041.875 C-190.4270148 1041.55001744 -190.4270148 1041.55001744 -192.8515625 1039.22265625 C-194.35602974 1036.86941203 -195.66967881 1034.45508254 -197 1032 C-205.08840773 1020.95192428 -216.4983774 1014.18558792 -230 1012 C-245.68945712 1010.79159484 -258.69120869 1015.04229402 -270.8125 1025 C-273.01253593 1026.96191439 -274.90361788 1029.01684983 -276.75 1031.3125 C-279.79824442 1034.95345862 -282.36176012 1035.13761998 -286.87890625 1035.55078125 C-308.87473401 1037.38948651 -330.83743608 1036.04924712 -352.4375 1031.6875 C-353.90461426 1031.40483276 -353.90461426 1031.40483276 -355.40136719 1031.11645508 C-361.01983418 1029.89524213 -364.31896907 1028.69277628 -368 1024 C-368.73089844 1023.10087891 -368.73089844 1023.10087891 -369.4765625 1022.18359375 C-376.01699395 1012.23946838 -376.9309702 1001.55918713 -375 990 C-372.29261645 978.70216161 -365.42926251 969.69173469 -356 963 C-346.26520015 957.29837633 -337.57807939 954.64330401 -326.375 954.75 C-325.55515625 954.74226563 -324.7353125 954.73453125 -323.890625 954.7265625 C-319.19820552 954.74165067 -315.41072063 955.20145372 -311 957 C-311.19722656 956.00613281 -311.39445312 955.01226563 -311.59765625 953.98828125 C-312.18069184 949.85298957 -311.49739679 946.19133895 -310.4375 942.1875 C-310.25695068 941.48898926 -310.07640137 940.79047852 -309.89038086 940.07080078 C-308.22220748 934.0503568 -305.69503771 929.05279435 -302 924 C-301.2575 922.948125 -300.515 921.89625 -299.75 920.8125 C-289.15696944 909.97871875 -274.72617077 904.09529346 -259.625 903.8125 C-256.61908145 903.96797855 -253.91273487 904.27181628 -251 905 C-251.33 904.34 -251.66 903.68 -252 903 C-253.28995281 885.84997172 -249.58151688 869.29577833 -238.41796875 855.76953125 C-225.82886688 841.25805457 -210.60372999 832.29498169 -191.1875 830.68359375 C-172.40278831 829.86757071 -155.89145281 836.20971243 -141.62890625 848.5 C-127.93559 861.52187578 -119.81609772 876.95283422 -118.05078125 895.88671875 C-117.96781372 899.33944423 -118.44282371 902.59503375 -119 906 C-118.4740625 905.84015625 -117.948125 905.6803125 -117.40625 905.515625 C-103.38878644 902.51188281 -88.91769482 906.58167846 -77 914 C-70.59249156 918.95000652 -65.13422175 924.76073053 -60 931 C-61.90548068 926.23629831 -63.98998708 922.19577559 -67 918 C-67.53625 917.195625 -68.0725 916.39125 -68.625 915.5625 C-77.90746003 905.54721418 -91.39317623 900.05281907 -104.875 899.25 C-106.00679687 899.23453125 -107.13859375 899.2190625 -108.3046875 899.203125 C-111 899 -111 899 -113 897 C-113.6747358 894.06239481 -114.26537652 891.14873829 -114.8125 888.1875 C-118.76116281 868.38280777 -127.39231473 851.0811257 -144.3125 839.25 C-149.58108605 835.74381494 -154.98691026 832.83192997 -160.734375 830.19140625 C-163 829 -163 829 -164 827 C-163.82384235 824.16106832 -163.57742358 821.36480259 -163.27490234 818.53857422 C-163.14086502 817.22001434 -163.14086502 817.22001434 -163.00411987 815.87481689 C-162.7037318 812.93416066 -162.39482791 809.99446187 -162.0859375 807.0546875 C-161.87177333 804.9754045 -161.65812938 802.89606786 -161.44497681 800.81668091 C-160.87675905 795.28771346 -160.30134175 789.75951743 -159.7244873 784.23144531 C-159.1596798 778.8070838 -158.6016141 773.3820302 -158.04296875 767.95703125 C-156.36270717 751.66186471 -154.67412586 735.36757086 -152.95363998 719.07659721 C-152.49917215 714.77189773 -152.04652794 710.46700714 -151.5939064 706.16211319 C-151.28225891 703.20663885 -150.96761051 700.25149515 -150.65280151 697.2963562 C-148.88708394 680.58637785 -147.5654358 663.85201824 -146.4230957 647.08886719 C-146.03295317 644.24057908 -145.47897467 642.43241003 -144 640 C-138.68997982 644.18022865 -134.62131699 648.75774715 -130.41796875 654.0390625 C-127.09462813 658.10867832 -123.54522692 661.93823586 -119.96875 665.78515625 C-117.44570091 668.62358647 -116.86974583 670.30525351 -116.51928711 673.99072266 C-116.43927963 674.81142242 -116.35927216 675.63212219 -116.27684021 676.47769165 C-116.19450638 677.36419403 -116.11217255 678.25069641 -116.02734375 679.1640625 C-115.93997452 680.07127045 -115.85260529 680.97847839 -115.7625885 681.91317749 C-115.4838235 684.81677523 -115.21060189 687.72086467 -114.9375 690.625 C-114.74971325 692.59118066 -114.5615668 694.557327 -114.37304688 696.5234375 C-113.9111866 701.34856971 -113.45429792 706.17415014 -113 711 C-112.16061186 706.0383771 -111.32455716 701.07620766 -110.49145508 696.11352539 C-110.20816916 694.42880455 -109.92400649 692.74423087 -109.63891602 691.05981445 C-109.2269651 688.62490315 -108.81827365 686.18946267 -108.41015625 683.75390625 C-108.28407486 683.01290176 -108.15799347 682.27189728 -108.02809143 681.50843811 C-107.78775655 680.06688249 -107.55656773 678.62376878 -107.33506775 677.17919922 C-107.10281047 675.66865432 -106.84792893 674.16148145 -106.57521057 672.65771484 C-105.74524905 667.37340489 -106.01947706 664.67729792 -109.26953125 660.1796875 C-109.98915039 659.15665527 -110.70876953 658.13362305 -111.45019531 657.07958984 C-112.22975586 656.0220752 -113.00931641 654.96456055 -113.8125 653.875 C-114.60372834 652.76560728 -115.39245513 651.65442632 -116.17871094 650.54150391 C-117.73039196 648.34941603 -119.29321996 646.16709358 -120.86376953 643.98828125 C-123.58789989 640.17761203 -126.18492626 636.29370581 -128.75 632.375 C-131.47321821 628.20822354 -131.47321821 628.20822354 -134.40820312 624.19238281 C-138.04829198 619.4732855 -138.04829198 619.4732855 -137.80419922 617.08105469 C-136.86405626 614.64821358 -135.67416787 612.57278742 -134.3046875 610.3515625 C-125.73927338 596.09350438 -119.5697083 582.13311464 -116.08203125 565.828125 C-113.88807892 556.22829603 -110.03418803 552.4677113 -102 547 C-100.90044373 546.17040058 -99.80675766 545.33296966 -98.71875 544.48828125 C-90.58696623 538.19565541 -90.58696623 538.19565541 -87 537 C-87.27787354 536.08710205 -87.55574707 535.1742041 -87.84204102 534.23364258 C-88.87297418 530.83585102 -89.88877923 527.43369095 -90.90014648 524.0300293 C-91.33940903 522.55939835 -91.78272869 521.08997274 -92.23022461 519.62182617 C-92.87391423 517.5074597 -93.50273811 515.38914324 -94.12890625 513.26953125 C-94.33093155 512.61725052 -94.53295685 511.96496979 -94.74110413 511.29292297 C-96.55046305 505.0670887 -95.17063689 501.15364928 -92.93359375 495.26171875 C-92.3293457 493.66166992 -92.3293457 493.66166992 -91.71289062 492.02929688 C-91.29201172 490.92650391 -90.87113281 489.82371094 -90.4375 488.6875 C-89.80038086 487.00430664 -89.80038086 487.00430664 -89.15039062 485.28710938 C-88.10371244 482.52340854 -87.05347135 479.76111699 -86 477 C-89.34537863 481.03001426 -92.25011365 485.25722014 -95.125 489.625 C-95.78822266 490.62660156 -95.78822266 490.62660156 -96.46484375 491.6484375 C-97.28379136 492.88551849 -98.10178259 494.12323358 -98.91845703 495.36181641 C-99.94114471 496.9108535 -100.97037632 498.45556448 -102 500 C-102.38113728 506.19348078 -101.51511905 512.02514048 -100.5 518.125 C-98.43997429 530.61506582 -98.43997429 530.61506582 -99 534 C-101.37890625 536.37890625 -101.37890625 536.37890625 -104.5625 538.5625 C-105.59503906 539.28566406 -106.62757813 540.00882813 -107.69140625 540.75390625 C-111 543 -111 543 -114.54296875 544.84765625 C-120.19213276 548.90444896 -121.64536982 556.54914282 -123.75 562.875 C-124.45217786 564.91088026 -125.16084329 566.94441773 -125.87017822 568.97781372 C-126.51066969 570.82525639 -127.1361636 572.67787874 -127.76074219 574.53076172 C-131.4289212 584.79963952 -131.4289212 584.79963952 -134.7421875 588.5703125 C-135.50595703 589.45009766 -135.50595703 589.45009766 -136.28515625 590.34765625 C-137.07212891 591.22744141 -137.07212891 591.22744141 -137.875 592.125 C-138.39191406 592.71925781 -138.90882813 593.31351563 -139.44140625 593.92578125 C-142.50362396 597.41994907 -145.67846488 600.7520044 -149 604 C-176.36053988 572.64804019 -190.40326063 520.05378718 -201.68139648 480.6965332 C-208.40262705 457.26627505 -216.29132623 435.05921006 -232 416 C-233.06144198 414.69681334 -234.12262181 413.39341312 -235.18359375 412.08984375 C-238.15729285 408.45176731 -241.15318728 404.83260514 -244.15625 401.21875 C-252.80437653 390.81168248 -261.39865447 380.37526786 -269.68994141 369.68066406 C-271.03663665 367.95299912 -272.39794777 366.23764523 -273.76171875 364.5234375 C-280.59044696 355.89075517 -286.20078507 348.4003917 -285.95703125 336.98828125 C-284.90853282 328.76744571 -278.92102947 322.33756262 -274 316 C-273.53287598 315.39397949 -273.06575195 314.78795898 -272.58447266 314.16357422 C-269.84359998 310.6151654 -267.06626531 307.09784285 -264.26660156 303.59570312 C-263.08827835 302.11121575 -261.93000044 300.61087776 -260.7734375 299.109375 C-254.69081656 291.26537734 -249.15727018 284.8330173 -239 283 C-229.96906738 281.91060428 -222.75666536 287.07626028 -215.37207031 291.56103516 C-211.91087121 293.66069628 -208.4236915 295.71576842 -204.93798828 297.77441406 C-203.06191311 298.88358122 -201.18788494 299.996218 -199.31591797 301.11230469 C-194.82867381 303.78039581 -190.3265682 306.39507304 -185.734375 308.87890625 C-184.91308105 309.32371338 -184.09178711 309.76852051 -183.24560547 310.22680664 C-181.713445 311.049692 -180.17628251 311.86336049 -178.63330078 312.66577148 C-173.44137218 315.45199674 -169.93455933 318.19632202 -168 324 C-167.22489566 330.44226068 -168.0374608 335.75708602 -172 341 C-177.64667979 346.31660248 -182.89696828 349.23279361 -190.75292969 349.16503906 C-194.60986319 348.88176146 -198.18579092 347.79948442 -201.875 346.6875 C-202.65858887 346.4603833 -203.44217773 346.2332666 -204.24951172 345.99926758 C-206.50298008 345.34346306 -208.75186275 344.67381727 -211 344 C-212.11890625 343.67 -213.2378125 343.34 -214.390625 343 C-216.59735191 342.34428686 -218.80057526 341.67972172 -221 341 C-218.5141388 346.31561625 -214.48366514 348.92247083 -209.8125 352.1875 C-209.0174707 352.75122314 -208.22244141 353.31494629 -207.40332031 353.89575195 C-202.10087571 357.6201882 -196.72423445 361.22063614 -191.25 364.6875 C-190.60780518 365.09701904 -189.96561035 365.50653809 -189.30395508 365.9284668 C-183.08480945 369.77841409 -177.37262252 371.90014577 -170 371 C-164.58226479 369.34713163 -160.72779803 367.02751097 -158 362 C-145.87925058 331.13437067 -171.05824179 287.30669369 -182.10870361 258.65029907 C-187.26137162 245.282813 -192.30003773 231.88682805 -197.0625 218.375 C-197.31434052 217.66362885 -197.56618103 216.95225769 -197.82565308 216.21932983 C-202.02925886 204.31816455 -205.1907015 194.78345196 -200.55859375 182.5546875 C-194.8807668 173.24817415 -185.87782357 169.66541694 -176.3125 165.375 C-174.9036642 164.72793825 -173.49545574 164.07950877 -172.08789062 163.4296875 C-142.67811601 149.91563833 -142.67811601 149.91563833 -131.5 153.0625 C-123.23116532 156.19409322 -117.85952034 163.03130745 -112.8125 170 C-108.47092683 175.83972617 -103.995323 181.47444783 -99.1875 186.9375 C-94.94860936 191.75590199 -90.79869026 196.60388782 -86.8515625 201.66796875 C-85.53294223 203.32876263 -84.16796408 204.95319203 -82.7734375 206.55078125 C-78.31099029 211.74645742 -75.66227813 215.02041472 -76 222 C-77.43224099 228.46344653 -80.62679065 233.76728541 -86.18359375 237.4453125 C-92.22472536 240.91722722 -96.93241559 242.56996649 -104 242 C-111.55021228 239.71708672 -117.75223856 235.79483771 -124.125 231.25 C-124.98609375 230.64800781 -125.8471875 230.04601562 -126.734375 229.42578125 C-128.82934347 227.95930332 -130.917503 226.48410781 -133 225 C-133.60514627 226.91031206 -133.60514627 226.91031206 -134 229 C-132.93937392 230.89528213 -132.93937392 230.89528213 -131.1875 232.625 C-130.54167969 233.31464844 -129.89585937 234.00429688 -129.23046875 234.71484375 C-128.49441406 235.46894531 -127.75835937 236.22304688 -127 237 C-126.19175781 237.84691406 -125.38351562 238.69382812 -124.55078125 239.56640625 C-119.42413811 244.84594512 -119.42413811 244.84594512 -113.49609375 249.12890625 C-108.67899643 252.49383831 -107.14214404 257.44006789 -105.0625 262.75 C-104.20632789 264.8210993 -103.34823676 266.89140628 -102.48828125 268.9609375 C-101.86107178 270.49379395 -101.86107178 270.49379395 -101.22119141 272.05761719 C-93.74083008 291.91612773 -93.74083008 291.91612773 -79 306 C-77.37834248 306.12148305 -75.75115673 306.17543652 -74.125 306.1875 C-73.26132812 306.20167969 -72.39765625 306.21585937 -71.5078125 306.23046875 C-67.53603237 305.86546092 -65.59270561 304.68531586 -63 301.6875 C-55.55224618 289.32306495 -54.81398456 272.96726215 -53 259 C-52.87850586 258.08025391 -52.75701172 257.16050781 -52.63183594 256.21289062 C-50.94070645 242.75452877 -50.8218936 229.29337452 -50.8125 215.75 C-50.81141235 214.91281433 -50.81032471 214.07562866 -50.8092041 213.21307373 C-50.81066064 203.31373194 -51.0736719 193.46331298 -51.64250183 183.58027649 C-51.98834584 177.52874233 -52.15236925 171.49978991 -52.125 165.4375 C-52.12886719 164.57705078 -52.13273437 163.71660156 -52.13671875 162.83007812 C-52.12965891 157.93407759 -51.95613779 153.07444985 -51.63934326 148.18833923 C-50.86769663 136.13478288 -50.84849039 124.09743326 -50.86962891 112.02246094 C-50.87500102 108.3743069 -50.86964544 104.72627538 -50.86328125 101.078125 C-50.86031413 90.17711183 -50.96255639 79.3478381 -51.76416016 68.47509766 C-53.16366298 47.85343809 -54.72372749 23.75781846 -41.11328125 6.625 C-30.38297901 -4.84314228 -13.9241981 -8.09657488 0 0 Z M25 722 C24.20700221 723.91535256 23.41404179 725.83072059 22.62109375 727.74609375 C22.37329163 728.34438492 22.1254895 728.94267609 21.87017822 729.55909729 C20.50626901 732.85276751 19.14443182 736.14727058 17.78637695 739.44335938 C15.43068435 745.15672167 13.07384136 750.86752877 10.609375 756.53515625 C10.27752197 757.30738525 9.94566895 758.07961426 9.60375977 758.87524414 C9.0108323 760.25021023 8.40778239 761.62087387 7.79272461 762.98608398 C6.15598389 766.81367303 5.77158899 769.03029285 7 773 C8.55922994 775.0901156 8.55922994 775.0901156 10.60546875 776.9609375 C11.34216797 777.68023438 12.07886719 778.39953125 12.83789062 779.140625 C14.00094727 780.24664063 14.00094727 780.24664063 15.1875 781.375 C16.70420002 782.83868663 18.2185606 784.30480166 19.73046875 785.7734375 C20.45927246 786.48081055 21.18807617 787.18818359 21.93896484 787.91699219 C24.35009283 790.35382516 26.55315249 792.90969751 28.7043457 795.57666016 C30.13760495 797.26644088 30.13760495 797.26644088 33 799 C32.61105699 808.78191662 31.05895565 818.27310226 29.28417969 827.88842773 C27.25107359 839.60443055 29.23965792 848.80759727 32.5625 860.125 C32.89185547 861.27226563 33.22121094 862.41953125 33.56054688 863.6015625 C34.36606037 866.40334858 35.17932967 869.20262355 36 872 C36.33 872 36.66 872 37 872 C37.11761912 864.74682074 36.90127741 857.62185258 36.21875 850.3984375 C35.68345667 842.08227323 36.14993608 835.01003361 38.44140625 826.9765625 C38.68793442 826.06796478 38.93446259 825.15936707 39.1884613 824.22323608 C39.96794132 821.35374567 40.76353079 818.48911991 41.5625 815.625 C42.36394875 812.73920705 43.16152024 809.85260845 43.94725037 806.9624939 C44.43412112 805.17248589 44.93007857 803.38491849 45.43617249 801.60025024 C45.76662819 800.38781143 45.76662819 800.38781143 46.10375977 799.15087891 C46.3013942 798.44379791 46.49902863 797.73671692 46.70265198 797.00820923 C47.0479637 794.67606594 46.80043147 793.20932004 46 791 C44.04478174 788.86293659 44.04478174 788.86293659 41.5625 786.8125 C40.66144531 786.03003906 39.76039063 785.24757813 38.83203125 784.44140625 C37.89746094 783.63574219 36.96289062 782.83007812 36 782 C34.24648689 780.42055826 32.49635409 778.83735372 30.75 777.25 C28.08803997 774.83815702 25.72014855 772.82798421 22.64453125 770.9375 C20 768 20 768 19.75634766 765.62792969 C19.98270804 762.62216067 20.41706148 759.71901744 20.9375 756.75 C21.09774658 755.68547607 21.25799316 754.62095215 21.4230957 753.52416992 C21.91192837 750.34209176 22.44702553 747.17150099 23 744 C23.15275391 743.10812988 23.30550781 742.21625977 23.46289062 741.29736328 C23.98260214 738.28291786 24.50209651 735.26978976 25.08374023 732.26660156 C25.75108795 728.79122228 26.14215098 725.54023621 26 722 C25.67 722 25.34 722 25 722 Z M-59 932 C-58 934 -58 934 -58 934 Z M-12 966 C-11 968 -11 968 -11 968 Z " fill="#000000" transform="translate(638,86)"/>
<path d="M0 0 C0.86625 0.5775 1.7325 1.155 2.625 1.75 C8.78428213 7.58510938 13.33671185 14.5831468 14.375 23.0625 C13.86948992 27.02232893 12.93985851 28.27013139 10 31 C-4.64933638 41.57136266 -28.50252499 40.26984396 -45.34375 37.7578125 C-52.22831953 36.33088249 -59.7441657 34.2576992 -65.3125 29.75 C-67.7775329 25.73290934 -67.91409456 22.58545796 -67 18 C-62.90269662 7.09891762 -54.23609154 -0.93085276 -44 -6 C-28.7736104 -12.88427189 -13.03296004 -10.20214506 0 0 Z " fill="#000000" transform="translate(428,1114)"/>
<path d="M0 0 C7.27101147 5.86587735 12.75876728 13.34090654 14.046875 22.6796875 C13.38171719 27.16950272 12.1533999 28.33139319 8.546875 31.0546875 C-7.67196986 40.8280303 -31.44453092 40.19943417 -49.30859375 35.96484375 C-56.60195483 33.85384607 -62.5226665 31.86748223 -66.453125 25.0546875 C-66.74118438 16.26887642 -62.16912048 9.60595686 -56.328125 3.3671875 C-39.79340617 -12.39591112 -18.48216532 -12.44608243 0 0 Z " fill="#000000" transform="translate(816.453125,1117.9453125)"/>
<path d="M0 0 C5.94949033 4.36623753 11.10517541 9.06621566 12.55078125 16.546875 C12.48828125 20.421875 12.48828125 20.421875 11.23828125 23.171875 C-0.05022777 32.40792783 -16.84191468 31.11682709 -30.51171875 30.421875 C-38.84352408 29.55265819 -45.54078941 27.39280434 -51.51171875 21.421875 C-52.36507518 16.42364449 -50.76604461 12.92802735 -48.24609375 8.73046875 C-36.61274174 -6.75446602 -16.20838468 -10.18380624 0 0 Z " fill="#000000" transform="translate(962.51171875,1096.578125)"/>
<path d="M0 0 C4.35935512 4.67930778 7.15887112 9.01613365 7.375 15.5 C6.22249399 18.82946182 5.30726287 20.20427485 2.2253418 21.91650391 C-5.92151471 25.35407258 -13.92108915 26.24661901 -22.6875 26.125 C-23.73856934 26.11557373 -24.78963867 26.10614746 -25.87255859 26.09643555 C-34.54582591 25.9275457 -43.07649534 25.57929767 -50.5 20.5625 C-52.87191672 17.5976041 -53.64553068 15.75298322 -53.328125 11.9296875 C-51.27236021 4.17889861 -45.39732316 -1.22014132 -38.75 -5.25 C-25.94776911 -11.87972671 -10.57829213 -9.8179075 0 0 Z " fill="#000000" transform="translate(257.75,1100.25)"/>
<path d="M0 0 C4.05783117 3.00768894 6.84654756 7.06091692 8.2421875 11.90234375 C8.02890498 14.6968916 7.28914969 15.84398711 5.51953125 18.04296875 C-1.59347089 23.85049708 -13.03394507 23.6944495 -21.7578125 22.90234375 C-27.80910156 21.84661949 -33.48688817 20.60036051 -37.7578125 15.90234375 C-38.62082166 13.61205022 -38.88069723 12.34870446 -38.2265625 9.97265625 C-34.95390288 3.40094459 -30.69549349 -1.05487455 -23.8828125 -3.97265625 C-14.93675656 -6.85125228 -7.79571349 -4.86798998 0 0 Z " fill="#000000" transform="translate(340.7578125,1141.09765625)"/>
<path d="M0 0 C4.38561818 2.45180229 7.83399841 5.13805202 9.9375 9.8125 C9.8125 12.3125 9.8125 12.3125 7.9375 15 C1.37186796 19.85856771 -5.53527301 19.63736906 -13.4375 18.80078125 C-17.13886868 18.143578 -20.48157527 17.01842473 -23.1875 14.3125 C-23.70978744 9.87305677 -23.53909102 7.85022745 -21.0625 4.0625 C-14.7539699 -1.97174618 -7.98739297 -3.70037414 0 0 Z " fill="#000000" transform="translate(858.1875,1137.6875)"/>
</svg>
