<svg xmlns="http://www.w3.org/2000/svg" viewBox="0 0 512 512" fill="#EBCE86">
  <path d="M357.391 234.756H296.96v-58.435c0-4.778-3.872-8.652-8.652-8.652H223.69c-4.778 0-8.652 3.874-8.652 8.652v58.435h-60.432c-4.778 0-8.652 3.874-8.652 8.652v64.617c0 4.778 3.874 8.652 8.652 8.652h60.432v166.955c0 4.778 3.874 8.652 8.652 8.652h64.618c4.779 0 8.652-3.874 8.652-8.652V379.326c0-4.778-3.872-8.652-8.652-8.652s-8.652 3.874-8.652 8.652v95.654h-47.315V308.025c0-4.778-3.874-8.652-8.652-8.652h-60.432V252.06h60.432c4.778 0 8.652-3.874 8.652-8.652v-58.435h47.315v58.435c0 4.778 3.872 8.652 8.652 8.652h60.431v47.314h-60.431c-4.779 0-8.652 3.874-8.652 8.652v45.153c0 4.778 3.872 8.652 8.652 8.652s8.652-3.874 8.652-8.652v-36.501h60.431c4.779 0 8.652-3.874 8.652-8.652v-64.617c0-4.779-3.873-8.653-8.652-8.653Z"/>
  <path d="M257.215 19.717c-4.778 0-8.652 3.874-8.652 8.652v89.077c0 4.778 3.874 8.652 8.652 8.652 4.779 0 8.652-3.874 8.652-8.652V28.369c0-4.779-3.872-8.652-8.652-8.652ZM503.348 268.28h-35.857c-4.779 0-8.652 3.874-8.652 8.652s3.873 8.652 8.652 8.652h35.857c4.779 0 8.652-3.874 8.652-8.652s-3.874-8.652-8.652-8.652ZM443.651 268.28h-29.38c-4.779 0-8.652 3.874-8.652 8.652s3.873 8.652 8.652 8.652h29.38c4.779 0 8.652-3.874 8.652-8.652s-3.873-8.652-8.652-8.652ZM437.88 95.557c-3.38-3.379-8.857-3.379-12.236 0l-62.987 62.987c-3.379 3.379-3.379 8.856 0 12.235 1.689 1.69 3.904 2.534 6.117 2.534 2.214 0 4.429-.844 6.119-2.534l62.987-62.987c3.379-3.379 3.379-8.858 0-12.235ZM123.676 129.438l-35.6-35.6c-3.378-3.379-8.856-3.379-12.235 0s-3.379 8.856 0 12.235l35.6 35.6c1.689 1.69 3.904 2.534 6.117 2.534s4.429-.844 6.117-2.534c3.38-3.379 3.38-8.856.001-12.235ZM151.062 156.826l-8.93-8.93c-3.379-3.379-8.857-3.379-12.235 0-3.379 3.379-3.379 8.856 0 12.235l8.93 8.93c1.689 1.69 3.904 2.534 6.117 2.534s4.429-.844 6.117-2.534c3.38-3.379 3.38-8.856.001-12.235ZM97.729 265.85H8.652C3.874 265.85 0 269.724 0 274.502s3.874 8.652 8.652 8.652h89.077c4.778 0 8.652-3.874 8.652-8.652s-3.874-8.652-8.652-8.652ZM121.016 408.982c-3.378-3.378-8.856-3.379-12.235 0l-34.659 34.659c-3.379 3.379-3.379 8.856 0 12.235 1.689 1.69 3.904 2.534 6.117 2.534s4.429-.844 6.117-2.534l34.659-34.659c3.38-3.379 3.38-8.856.001-12.235ZM149.343 380.655c-3.377-3.379-8.855-3.379-12.235 0l-6.796 6.795c-3.379 3.379-3.379 8.857 0 12.236 1.689 1.69 3.904 2.534 6.117 2.534s4.429-.844 6.117-2.534l6.796-6.794c3.38-3.38 3.38-8.858.001-12.237ZM436.162 445.36l-62.988-62.987c-3.38-3.378-8.857-3.379-12.236 0s-3.379 8.856 0 12.235l62.987 62.987c1.69 1.69 3.904 2.534 6.118 2.534s4.429-.844 6.119-2.534c3.379-3.379 3.379-8.857 0-12.235ZM204.553 125.721l-21.025-50.736c-1.828-4.414-6.891-6.51-11.305-4.681-4.415 1.83-6.51 6.89-4.681 11.305l21.025 50.736c1.381 3.331 4.602 5.342 7.997 5.342 1.104 0 2.226-.212 3.308-.661 4.414-1.829 6.509-6.89 4.681-11.305ZM461.421 191.95c-1.83-4.415-6.889-6.512-11.305-4.682l-50.735 21.012c-4.414 1.828-6.512 6.889-4.684 11.304 1.381 3.333 4.602 5.343 7.998 5.343 1.103 0 2.225-.212 3.307-.661l50.735-21.012c4.414-1.829 6.512-6.889 4.684-11.304ZM342.023 71.221c-4.41-1.827-9.474.266-11.304 4.681l-21.025 50.748c-1.828 4.415.268 9.477 4.682 11.305 1.082.449 2.203.661 3.307.661 3.395 0 6.616-2.011 7.997-5.342l21.025-50.748c1.83-4.415-.266-9.475-4.682-11.305ZM113.547 206.033l-50.736-21.013c-4.414-1.827-9.475.268-11.304 4.682-1.828 4.415.269 9.475 4.683 11.304l50.736 21.013c1.082.449 2.203.661 3.307.661 3.395 0 6.617-2.012 7.997-5.343 1.829-4.415-.267-9.476-4.683-11.304ZM117.302 331.854c-1.828-4.415-6.891-6.511-11.305-4.682l-50.723 21.012c-4.415 1.828-6.511 6.89-4.682 11.304 1.381 3.332 4.602 5.343 7.997 5.343 1.104 0 2.225-.212 3.308-.661l50.723-21.012c4.414-1.828 6.51-6.889 4.682-11.304ZM455.811 350.434l-50.735-21.025c-4.411-1.827-9.475.265-11.305 4.68s.265 9.475 4.681 11.305l50.735 21.025c1.082.449 2.204.661 3.308.661 3.394 0 6.616-2.011 7.997-5.342 1.828-4.414-.266-9.475-4.681-11.304Z"/>
</svg>
