<?xml version="1.0"?>
<svg xmlns="http://www.w3.org/2000/svg" xmlns:xlink="http://www.w3.org/1999/xlink" width="141" height="140" viewBox="20 24 141 140">
<path fill="#3D352F" d="M86.2681 25.8958C86.4156 25.8767 86.5634 25.8605 86.7114 25.8469C95.0689 25.0988 107.635 26.1966 115.034 30.4311C117.969 31.8839 121.081 34.9483 123.896 36.3692C144.229 46.6319 157.198 65.5369 159.258 88.359C160.492 102.03 156.525 117.814 149.483 129.801C146.597 134.712 141.732 139.489 138.313 144.129C133.745 150.204 120.411 156.103 113.226 158.257C109.575 159.352 99.5688 160.942 95.4525 161.319C95.3314 161.334 95.2101 161.347 95.0887 161.36C80.9328 162.816 58.1855 155.93 46.9503 147.153C39.2008 141.099 30.0399 124.731 26.8388 115.488C25.0797 110.487 23.9341 105.29 23.4269 100.013C21.0468 76.2146 32.554 52.6648 51.7554 38.7508C62.4402 31.0082 73.2299 27.1865 86.2681 25.8958Z"></path>
<path fill="#6E655D" d="M53.9174 42.1226C61.6643 36.7134 64.9262 35.8483 74.0024 34.0188C79.6585 32.8883 85.3242 31.8063 90.9988 30.7727C98.8064 35.3055 99.288 31.7781 106.273 32.0443C110.035 33.901 126.505 41.613 125.199 47.618C124.914 48.9273 121.216 49.8885 120.604 50.7624C121.028 50.7366 121.452 50.7047 121.875 50.6667L121.38 51.2597C121.962 51.5386 129.47 52.2627 130.651 52.4025C131.069 52.0259 131.077 51.7764 131.194 51.24C131.563 50.109 131.406 49.9867 132.246 49.3163C134.055 49.0046 137.048 51.1429 138.055 52.5245L140.19 54.5204L141.089 54.2137C141.872 55.1715 142.222 55.5731 142.791 56.6853C144.257 58.185 145.366 60.0316 146.605 61.642C152.566 69.3951 154.032 77.0031 155.274 86.3133C157.153 100.386 156.815 111.017 149.178 123.332C146.119 128.263 144.629 131.435 140.19 135.776C139.798 136.159 139.375 136.507 138.924 136.817C137.162 137.085 133.977 137.881 132.405 136.837C131.5 136.236 131.237 134.198 131.522 133.176C130.994 132.141 130.654 131.416 129.945 130.487L129.86 130.807L130.099 130.606C129.86 130.603 129.939 130.559 129.78 130.663C129.788 131.448 129.765 132.157 129.732 132.938C129.811 134.832 129.873 136.703 130.054 138.592C130.873 139.58 131.729 140.666 132.666 141.532C131.55 143.089 130.473 145.654 129.571 146.669L129.349 146.607C129.386 146.312 129.422 145.89 129.508 145.616C129.479 145.406 129.501 143.691 129.442 143.515C128.771 141.318 126.844 140.769 127.736 138.268C127.974 137.6 129.394 131.437 129.308 131.258C126.879 131.333 125.622 139.131 124.187 140.291L124.159 141.159L124.487 141.371L125.023 141.071L125.119 140.921C125.53 140.266 125.827 139.997 126.194 139.241C126.624 138.356 127.013 136.644 127.54 135.945C128.223 139.322 124.856 142.424 122.381 144.058C120.533 145.278 118.469 147.249 116.531 148.216C111.254 150.849 105.438 152.73 99.677 153.97C95.811 155.06 91.6062 153.701 87.8491 153.324C79.1954 152.457 71.7128 150.277 63.8921 146.446C61.5102 145.279 58.3242 144.549 55.9505 143.066C54.424 142.113 53.3923 140.642 51.8684 139.641C51.6503 140.483 52.6585 143.021 52.9681 143.933L52.7706 144.306C51.7174 143.824 48.6432 137.894 48.0754 136.57C48.8686 133.676 49.3628 130.518 50.2909 127.643C50.4927 127.018 50.7205 126.57 50.8867 125.895L50.5669 125.919L49.6102 127.084C49.4403 128.842 46.7804 131.405 45.5111 132.808C43.3485 132.06 41.3493 131.421 39.302 130.387C33.5135 122.4 28.3798 111.18 27.1663 101.371C26.4626 95.6824 27.6127 78.1056 31.0622 73.6785C34.0774 68.7355 34.2331 68.8222 39.9592 67.9636L40.2799 67.6854L40.5005 67.2007C39.9497 65.9458 37.2144 65.2423 35.9204 64.7876C36.2791 60.5117 36.9326 59.6255 39.1606 55.8651C39.2693 55.7089 40.2744 53.9452 40.3092 53.9289C43.269 52.5411 44.442 49.0795 46.9352 46.8649C48.3859 45.5764 51.2468 42.4858 53.2727 42.2668L53.9174 42.1226Z"></path>
<path fill="#5C534C" d="M39.8089 64.8286C42.7199 65.4056 44.3481 67.1985 45.3382 67.1939C48.5821 64.7558 43.1195 61.1393 44.096 58.5777C45.0901 55.9698 47.0787 53.2696 49.2759 51.5618C53.461 48.309 58.0794 44.0242 62.8407 41.6861C62.0138 42.4931 59.6992 43.8405 58.6007 44.7354C54.8213 47.8145 49.9517 51.0299 46.8401 54.7273C46.0419 55.6758 44.5831 58.4736 43.9671 59.6174C45.0778 61.0959 45.777 62.0563 46.728 63.6715C46.5184 72.1143 41.9325 72.484 37.0651 77.2918C35.5141 78.8238 33.2255 84.0697 32.211 86.3008C34.8065 89.6142 37.8164 93.5666 39.3318 97.5119C39.663 100.291 39.8504 103.17 39.5888 105.964C39.4515 107.913 38.2947 110.397 38.4361 112.305C38.6466 115.148 41.6704 118.801 43.4448 120.907C45.926 121.517 49.3301 122.7 51.4931 121.446C52.0969 121.096 54.1796 120.415 54.8963 120.67C55.2332 121.424 54.3217 124.246 54.2119 125.296C54.0718 126.636 54.0872 127.695 54.1042 129.029C56.0665 130.738 59.9416 134.874 62.2446 136.021C66.9314 138.151 74.5067 138.981 79.5215 139.602C84.9488 140.274 85.252 138.162 89.7101 141.746C91.9817 143.573 102.43 137.973 105.749 139.111C106.324 139.308 110.668 138.308 111.591 138.087C115.014 137.507 123.258 130.518 124.796 127.867C128.16 128.094 129.856 128.825 133.318 128.63C138.074 125.63 140.325 117.014 142.128 111.737C143.417 107.961 143.333 101.403 143.906 97.2673C144.213 91.884 145.917 85.9529 145.541 80.5578C145.029 73.2142 137.87 63.7524 134.683 56.9834C133.552 54.5801 131.164 54.4309 131.194 51.24C131.563 50.109 131.406 49.9867 132.246 49.3163C134.055 49.0046 137.048 51.1429 138.055 52.5245L140.19 54.5204L141.089 54.2137C141.872 55.1715 142.222 55.5731 142.791 56.6853C144.257 58.185 145.366 60.0316 146.605 61.642C152.566 69.3951 154.032 77.0031 155.274 86.3133C157.153 100.386 156.815 111.017 149.178 123.332C146.119 128.263 144.629 131.435 140.19 135.776C139.798 136.159 139.375 136.507 138.924 136.817C137.162 137.085 133.977 137.881 132.405 136.837C131.5 136.236 131.237 134.198 131.522 133.176C130.994 132.141 130.654 131.416 129.945 130.487L129.86 130.807L130.099 130.606C129.86 130.603 129.939 130.559 129.78 130.663C129.788 131.448 129.765 132.157 129.732 132.938C129.811 134.832 129.873 136.703 130.054 138.592C130.873 139.58 131.729 140.666 132.666 141.532C131.55 143.089 130.473 145.654 129.571 146.669L129.349 146.607C129.386 146.312 129.422 145.89 129.508 145.616C129.479 145.406 129.501 143.691 129.442 143.515C128.771 141.318 126.844 140.769 127.736 138.268C127.974 137.6 129.394 131.437 129.308 131.258C126.879 131.333 125.622 139.131 124.187 140.291L124.159 141.159L124.487 141.371L125.023 141.071L125.119 140.921C125.53 140.266 125.827 139.997 126.194 139.241C126.624 138.356 127.013 136.644 127.54 135.945C128.223 139.322 124.856 142.424 122.381 144.058C120.533 145.278 118.469 147.249 116.531 148.216C111.254 150.849 105.438 152.73 99.677 153.97C95.811 155.06 91.6062 153.701 87.8491 153.324C79.1954 152.457 71.7128 150.277 63.8921 146.446C61.5102 145.279 58.3242 144.549 55.9505 143.066C54.424 142.113 53.3923 140.642 51.8684 139.641C51.6503 140.483 52.6585 143.021 52.9681 143.933L52.7706 144.306C51.7174 143.824 48.6432 137.894 48.0754 136.57C48.8686 133.676 49.3628 130.518 50.2909 127.643C50.4927 127.018 50.7205 126.57 50.8867 125.895L50.5669 125.919L49.6102 127.084C49.4403 128.842 46.7804 131.405 45.5111 132.808C43.3485 132.06 41.3493 131.421 39.302 130.387C33.5135 122.4 28.3798 111.18 27.1663 101.371C26.4626 95.6824 27.6127 78.1056 31.0622 73.6785C34.0774 68.7355 34.2331 68.8222 39.9592 67.9636L40.2799 67.6854C41.5274 67.2488 43.0516 68.1755 44.1839 67.4919C43.7587 66.1618 41.0252 65.6877 39.8089 64.8286Z"></path>
<path fill="#6E655D" d="M126.993 132.962C125.901 134.603 124.767 138.321 124.187 140.291L124.159 141.159L124.487 141.371L125.023 141.071C122.832 145.057 113.366 147.165 109.804 148.768C95.3007 155.208 85.8219 151.465 71.8601 146.889C60.2839 143.096 61.5067 149.373 54.4306 136.023C58.5705 138.112 62.0987 139.956 66.651 141.001C69.2619 141.6 73.1798 141.988 75.6189 142.781C80.7062 144.435 83.8527 147.081 89.6441 146.762C94.7443 146.481 98.8887 144.126 103.59 143.071C107.332 142.232 110.694 142.514 114.593 140.834C118.452 139.172 119.233 136.49 122.663 134.542C123.623 133.997 125.86 133.322 126.993 132.962Z"></path>
<path fill="#4D443D" d="M133.727 135.228C135.247 135.133 136.606 135.071 138.061 134.685C140.234 134.108 142.5 130.798 143.383 128.778C146.138 122.473 150.233 114.319 152.187 107.91C152.971 105.338 152.224 94.7576 151.631 91.8375C151.054 88.9896 148.392 84.6912 148.045 81.4954C147.479 76.2802 150.238 73.5992 147.629 68.408C146.137 65.4385 144.383 62.6993 142.515 59.9227C141.335 58.1683 138.183 55.7266 137.53 53.735C137.634 52.8543 137.489 53.1448 138.055 52.5245L140.19 54.5204L141.089 54.2137C141.872 55.1715 142.222 55.5731 142.791 56.6853C144.257 58.185 145.366 60.0316 146.605 61.642C152.566 69.3951 154.032 77.0031 155.274 86.3133C157.153 100.386 156.815 111.017 149.178 123.332C146.119 128.263 144.629 131.435 140.19 135.776C139.798 136.159 139.375 136.507 138.924 136.817C137.162 137.085 133.977 137.881 132.405 136.837C131.5 136.236 131.237 134.198 131.522 133.176L133.727 135.228Z"></path>
<path fill="#6E655D" d="M141.089 54.2137C141.872 55.1715 142.222 55.5731 142.791 56.6853L142.742 56.7411C142.25 56.6609 140.687 54.9993 140.19 54.5204L141.089 54.2137Z"></path>
<path fill="#4D443D" d="M39.302 130.387C33.5135 122.4 28.3798 111.18 27.1663 101.371C26.4626 95.6824 27.6127 78.1056 31.0622 73.6785L31.9997 73.5844C31.6525 74.4201 30.4005 74.7166 29.9387 76.4405C28.7842 80.751 27.6289 85.2723 28.9316 89.6927C29.1164 90.3113 30.8927 91.6975 31.3297 92.3849C34.6326 97.5793 35.6307 105.433 31.0157 110.224C34.0381 115.799 36.333 124.531 41.0164 128.198C45.0959 128.34 45.6303 128.192 49.6102 127.084C49.4403 128.842 46.7804 131.405 45.5111 132.808C43.3485 132.06 41.3493 131.421 39.302 130.387Z"></path>
<path fill="#8E827B" d="M127.813 140.25C128.193 138.62 128.997 134.005 129.732 132.938C129.811 134.832 129.873 136.703 130.054 138.592C130.873 139.58 131.729 140.666 132.666 141.532C131.55 143.089 130.473 145.654 129.571 146.669L129.349 146.607C129.386 146.312 129.422 145.89 129.508 145.616C130.267 142.621 129.94 142.453 127.813 140.25Z"></path>
<path fill="#8E827B" d="M39.9592 67.9636L40.0407 68.4115C38.2854 69.8601 33.0578 71.9144 31.9997 73.5844L31.0622 73.6785C34.0774 68.7355 34.2331 68.8222 39.9592 67.9636Z"></path>
<path fill="#8E827B" d="M53.9174 42.1226C61.6643 36.7134 64.9262 35.8483 74.0024 34.0188C79.6585 32.8883 85.3242 31.8063 90.9988 30.7727C98.8064 35.3055 99.288 31.7781 106.273 32.0443L106.059 32.5784C102.984 33.6804 101.401 34.1759 98.6104 35.9817C97.188 35.5404 92.0483 33.8621 90.4932 33.9559C81.9487 34.4715 71.7287 36.5859 63.3229 38.3999C61.2297 38.8516 56.1267 42.4101 53.9174 42.1226Z"></path>
<path fill="#4D443D" d="M35.9204 64.7876C36.2791 60.5117 36.9326 59.6255 39.1606 55.8651C39.2693 55.7089 40.2744 53.9452 40.3092 53.9289C43.269 52.5411 44.442 49.0795 46.9352 46.8649C48.3859 45.5764 51.2468 42.4858 53.2727 42.2668C52.2817 43.4945 48.9745 45.7888 48.4444 46.4573C46.2937 49.17 40.0514 55.6026 38.548 58.0611C38.611 59.693 38.6051 63.7653 39.8089 64.8286C41.0252 65.6877 43.7587 66.1618 44.1839 67.4919C43.0516 68.1755 41.5274 67.2488 40.2799 67.6854L40.5005 67.2007C39.9497 65.9458 37.2144 65.2423 35.9204 64.7876Z"></path>
<path fill="#8E827B" d="M108.814 124.23C110.741 123.612 116.781 120.641 118.189 121.075C118.452 122.344 114.71 127.177 113.7 128.215C111.413 128.211 107.562 128.121 105.421 128.515C102.563 129.04 100.263 131.148 96.9276 130.602C94.7622 130.248 94.3527 129.407 92.1033 128.811C93.7782 128.135 95.8499 128.717 97.7986 128.285C94.7323 128.188 93.5488 128.189 90.5543 127.675C98.3409 126.739 97.3607 126.412 104.066 122.987L108.814 124.23Z"></path>
<path fill="#3D352F" d="M108.814 124.23C110.741 123.612 116.781 120.641 118.189 121.075C116.208 122.632 113.908 124.527 111.825 125.864C110.216 125.909 106.819 125.886 105.467 126.173C103.16 126.661 100.287 128.218 97.7986 128.285C94.7323 128.188 93.5488 128.189 90.5543 127.675C98.3409 126.739 97.3607 126.412 104.066 122.987L108.814 124.23Z"></path>
<path fill="#3D352F" d="M85.2793 89.5457C87.6094 89.3758 90.2802 89.8425 92.6565 90.1077C88.9365 91.211 87.0584 92.0586 83.5516 93.6735C77.602 92.6034 76.2577 93.1551 71.9028 97.1908C70.5041 98.4641 68.2939 97.61 66.4715 97.3878C70.2328 95.7248 73.193 93.9314 76.6539 91.7731C76.9918 91.5624 79.9203 92.1456 80.5684 92.2332C82.3028 91.0905 83.3429 90.3622 85.2793 89.5457Z"></path>
<defs><linearGradient id="gradient_0" gradientUnits="userSpaceOnUse" x1="110.96165" y1="95.991203" x2="114.68095" y2="89.447754"><stop offset="0" stop-color="#1D1315"></stop><stop offset="1" stop-color="#39322D"></stop></linearGradient></defs>
<path fill="url(#gradient_0)" d="M100.69 91.0943C104.321 90.966 111.664 91.4337 115.017 92.7027C117.225 93.5384 122.17 93.2414 122.91 93.585L122.439 93.8471C115.67 95.9071 117.774 94.1446 112.058 93.0879C107.465 92.2385 105.777 93.0756 100.69 91.0943Z"></path>
<path fill="#8E827B" d="M130.292 46.6613C136.435 47.4344 137.277 49.5893 141.089 54.2137L140.19 54.5204L138.055 52.5245C137.048 51.1429 134.055 49.0046 132.246 49.3163C131.406 49.9867 131.563 50.109 131.194 51.24C131.077 51.7764 131.069 52.0259 130.651 52.4025C129.47 52.2627 121.962 51.5386 121.38 51.2597L121.875 50.6667C123.794 50.4871 126.104 50.3317 127.973 49.998C128.723 48.921 129.58 47.749 130.292 46.6613Z"></path>
</svg>
